# xmcd
#
# Track frame offsets: 
#        150
#        24197
#        45300
#        77910
#        106609
#        130315
#        153809
#        174675
#        194178
#        235898
#        266318
#        286945
#        305613
#        327929
#
# Disc length: 4653 seconds
#
# Revision: 2
# Processed by: cddbd v1.5.2PL0 Copyright (c) Steve Scherf et al.
# Submitted via: ExactAudioCopy v1.0b3
#
DISCID=b3122b0e
DTITLE=Various Artist - Time Blues   Vol.10
DYEAR=2008
DGENRE=Blues
TTITLE0=Chris Bell and 100% Blues - Cold-Gearted Woman
TTITLE1=King Ernest - Better Days
TTITLE2=Jerry Waddel - Cryin' In The Rain
TTITLE3=Reggie Wayne Morris - Virus Blues
TTITLE4=Mick Martin and The Blues Rockers - Your Lies
TTITLE5=J.P.Stingray - Didn't Mean To Hurt You
TTITLE6=Robben Ford - Ain't Got Nothin' But The Blues
TTITLE7=Oscar Perry - Woman's Got To Have It
TTITLE8=Adam Holt and The Blues Congregation - Hole In My Pocket
TTITLE9=The Barrelhouse Brothers - Can't Get You Off Of My Mind
TTITLE10=Jay McShann - Hootie K.C. Christmas Prayer
TTITLE11=Tim Turner - The Sky Is Cryin
TTITLE12=Howard "Guitar" Luedtke - Face To Face With The Blues
TTITLE13=Steve Johnson - Walkin' Spanish Down The Hall
EXTD=
EXTT0=
EXTT1=
EXTT2=
EXTT3=
EXTT4=
EXTT5=
EXTT6=
EXTT7=
EXTT8=
EXTT9=
EXTT10=
EXTT11=
EXTT12=
EXTT13=
PLAYORDER=
